<?xml version="1.0" encoding="utf-8"?>
<!-- Generator: Adobe Illustrator 16.0.0, SVG Export Plug-In . SVG Version: 6.00 Build 0)  -->
<!DOCTYPE svg PUBLIC "-//W3C//DTD SVG 1.1//EN" "http://www.w3.org/Graphics/SVG/1.1/DTD/svg11.dtd">
<svg version="1.1" id="Layer_1" xmlns="http://www.w3.org/2000/svg" xmlns:xlink="http://www.w3.org/1999/xlink" x="0px" y="0px"
	 width="288.001px" height="288px" viewBox="0 0 288.001 288" enable-background="new 0 0 288.001 288" xml:space="preserve">
<g>
	<g>
		<defs>
			<rect id="SVGID_1_" x="0" width="288" height="288"/>
		</defs>
		<use xlink:href="#SVGID_1_"  display="none" overflow="visible" fill-rule="evenodd" clip-rule="evenodd" fill="#FFFFFF"/>
		<clipPath id="SVGID_2_">
			<use xlink:href="#SVGID_1_"  display="none" overflow="visible"/>
		</clipPath>
		<g clip-path="url(#SVGID_2_)">
			<circle cx="-14.498" cy="0.002" r="0.052"/>
			<circle cx="-5.169" cy="0.002" r="0.052"/>
			<circle cx="4.158" cy="0.002" r="0.052"/>
			<circle cx="13.486" cy="0.002" r="0.052"/>
			<circle cx="22.814" cy="0.002" r="0.052"/>
			<circle cx="32.142" cy="0.002" r="0.052"/>
			<circle cx="41.47" cy="0.002" r="0.052"/>
			<circle cx="50.798" cy="0.002" r="0.052"/>
			<circle cx="60.126" cy="0.002" r="0.052"/>
			<circle cx="69.455" cy="0.002" r="0.052"/>
			<circle cx="78.782" cy="0.002" r="0.052"/>
			<circle cx="88.11" cy="0.002" r="0.052"/>
			<circle cx="97.438" cy="0.002" r="0.052"/>
			<circle cx="106.766" cy="0.002" r="0.052"/>
			<circle cx="116.094" cy="0.002" r="0.052"/>
			<circle cx="125.421" cy="0.002" r="0.052"/>
			<circle cx="134.75" cy="0.002" r="0.052"/>
			<circle cx="144.078" cy="0.002" r="0.052"/>
			<circle cx="153.406" cy="0.002" r="0.052"/>
			<circle cx="162.733" cy="0.002" r="0.052"/>
			<circle cx="172.062" cy="0.002" r="0.052"/>
			<circle cx="181.391" cy="0.002" r="0.052"/>
			<circle cx="190.719" cy="0.002" r="0.052"/>
			<circle cx="200.047" cy="0.002" r="0.052"/>
			<circle cx="209.373" cy="0.002" r="0.052"/>
			<circle cx="218.701" cy="0.002" r="0.052"/>
			<circle cx="228.029" cy="0.002" r="0.052"/>
			<circle cx="237.357" cy="0.002" r="0.052"/>
			<circle cx="246.686" cy="0.002" r="0.052"/>
			<circle cx="256.014" cy="0.002" r="0.052"/>
			<circle cx="265.342" cy="0.002" r="0.052"/>
			<circle cx="274.67" cy="0.002" r="0.052"/>
			<circle cx="283.998" cy="0.002" r="0.052"/>
			<circle cx="293.326" cy="0.002" r="0.052"/>
			<circle cx="-9.833" cy="9.33" r="0.156"/>
			<circle cx="-0.505" cy="9.33" r="0.156"/>
			<circle cx="8.822" cy="9.33" r="0.156"/>
			<circle cx="18.15" cy="9.33" r="0.156"/>
			<circle cx="27.479" cy="9.33" r="0.156"/>
			<circle cx="36.806" cy="9.33" r="0.156"/>
			<circle cx="46.134" cy="9.33" r="0.156"/>
			<circle cx="55.462" cy="9.33" r="0.156"/>
			<circle cx="64.791" cy="9.33" r="0.156"/>
			<circle cx="74.119" cy="9.33" r="0.156"/>
			<circle cx="83.446" cy="9.33" r="0.156"/>
			<circle cx="92.774" cy="9.33" r="0.156"/>
			<circle cx="102.103" cy="9.33" r="0.156"/>
			<circle cx="111.43" cy="9.33" r="0.156"/>
			<circle cx="120.757" cy="9.33" r="0.156"/>
			<circle cx="130.085" cy="9.33" r="0.156"/>
			<circle cx="139.414" cy="9.33" r="0.156"/>
			<circle cx="148.742" cy="9.33" r="0.156"/>
			<circle cx="158.07" cy="9.33" r="0.156"/>
			<circle cx="167.398" cy="9.33" r="0.156"/>
			<circle cx="176.727" cy="9.33" r="0.156"/>
			<circle cx="186.055" cy="9.33" r="0.156"/>
			<circle cx="195.383" cy="9.33" r="0.156"/>
			<circle cx="204.709" cy="9.33" r="0.156"/>
			<circle cx="214.037" cy="9.33" r="0.156"/>
			<circle cx="223.365" cy="9.33" r="0.156"/>
			<circle cx="232.693" cy="9.33" r="0.156"/>
			<circle cx="242.021" cy="9.33" r="0.156"/>
			<circle cx="251.35" cy="9.33" r="0.156"/>
			<circle cx="260.678" cy="9.33" r="0.156"/>
			<circle cx="270.006" cy="9.33" r="0.156"/>
			<circle cx="279.334" cy="9.33" r="0.156"/>
			<circle cx="288.662" cy="9.33" r="0.156"/>
			<circle cx="297.99" cy="9.33" r="0.156"/>
			<circle cx="-14.498" cy="18.658" r="0.284"/>
			<circle cx="-5.169" cy="18.658" r="0.284"/>
			<circle cx="4.158" cy="18.658" r="0.284"/>
			<circle cx="13.486" cy="18.658" r="0.284"/>
			<circle cx="22.814" cy="18.658" r="0.284"/>
			<circle cx="32.142" cy="18.658" r="0.284"/>
			<circle cx="41.47" cy="18.658" r="0.284"/>
			<circle cx="50.798" cy="18.658" r="0.284"/>
			<circle cx="60.126" cy="18.658" r="0.284"/>
			<circle cx="69.455" cy="18.658" r="0.284"/>
			<circle cx="78.782" cy="18.658" r="0.284"/>
			<circle cx="88.11" cy="18.658" r="0.284"/>
			<circle cx="97.438" cy="18.658" r="0.284"/>
			<circle cx="106.766" cy="18.658" r="0.284"/>
			<circle cx="116.094" cy="18.658" r="0.284"/>
			<circle cx="125.421" cy="18.658" r="0.284"/>
			<circle cx="134.75" cy="18.658" r="0.284"/>
			<circle cx="144.078" cy="18.658" r="0.284"/>
			<circle cx="153.406" cy="18.658" r="0.284"/>
			<circle cx="162.733" cy="18.658" r="0.284"/>
			<circle cx="172.062" cy="18.658" r="0.284"/>
			<circle cx="181.391" cy="18.658" r="0.284"/>
			<circle cx="190.719" cy="18.658" r="0.284"/>
			<circle cx="200.047" cy="18.658" r="0.284"/>
			<circle cx="209.373" cy="18.658" r="0.284"/>
			<circle cx="218.701" cy="18.658" r="0.284"/>
			<circle cx="228.029" cy="18.658" r="0.284"/>
			<circle cx="237.357" cy="18.658" r="0.284"/>
			<circle cx="246.686" cy="18.658" r="0.284"/>
			<circle cx="256.014" cy="18.658" r="0.284"/>
			<circle cx="265.342" cy="18.658" r="0.284"/>
			<circle cx="274.67" cy="18.658" r="0.284"/>
			<circle cx="283.998" cy="18.658" r="0.284"/>
			<circle cx="293.326" cy="18.658" r="0.284"/>
			<circle cx="-9.833" cy="27.986" r="0.414"/>
			<circle cx="-0.505" cy="27.986" r="0.414"/>
			<circle cx="8.822" cy="27.986" r="0.414"/>
			<circle cx="18.15" cy="27.986" r="0.414"/>
			<circle cx="27.479" cy="27.986" r="0.414"/>
			<circle cx="36.806" cy="27.986" r="0.414"/>
			<circle cx="46.134" cy="27.986" r="0.414"/>
			<circle cx="55.462" cy="27.986" r="0.414"/>
			<circle cx="64.791" cy="27.986" r="0.414"/>
			<circle cx="74.119" cy="27.986" r="0.414"/>
			<circle cx="83.446" cy="27.986" r="0.414"/>
			<circle cx="92.774" cy="27.986" r="0.414"/>
			<circle cx="102.103" cy="27.986" r="0.414"/>
			<circle cx="111.43" cy="27.986" r="0.414"/>
			<circle cx="120.757" cy="27.986" r="0.414"/>
			<circle cx="130.085" cy="27.986" r="0.414"/>
			<circle cx="139.414" cy="27.986" r="0.414"/>
			<circle cx="148.742" cy="27.986" r="0.414"/>
			<circle cx="158.07" cy="27.986" r="0.414"/>
			<circle cx="167.398" cy="27.986" r="0.414"/>
			<circle cx="176.727" cy="27.986" r="0.414"/>
			<circle cx="186.055" cy="27.986" r="0.414"/>
			<circle cx="195.383" cy="27.986" r="0.414"/>
			<circle cx="204.709" cy="27.986" r="0.414"/>
			<circle cx="214.037" cy="27.986" r="0.414"/>
			<circle cx="223.365" cy="27.986" r="0.414"/>
			<circle cx="232.693" cy="27.986" r="0.414"/>
			<circle cx="242.021" cy="27.986" r="0.414"/>
			<circle cx="251.35" cy="27.986" r="0.414"/>
			<circle cx="260.678" cy="27.986" r="0.414"/>
			<circle cx="270.006" cy="27.986" r="0.414"/>
			<circle cx="279.334" cy="27.986" r="0.414"/>
			<circle cx="288.662" cy="27.986" r="0.414"/>
			<circle cx="297.99" cy="27.986" r="0.414"/>
			<circle cx="-14.498" cy="37.314" r="0.543"/>
			<circle cx="-5.169" cy="37.314" r="0.543"/>
			<circle cx="4.158" cy="37.314" r="0.543"/>
			<circle cx="13.486" cy="37.314" r="0.543"/>
			<circle cx="22.814" cy="37.314" r="0.543"/>
			<circle cx="32.142" cy="37.314" r="0.543"/>
			<circle cx="41.47" cy="37.314" r="0.543"/>
			<circle cx="50.798" cy="37.314" r="0.543"/>
			<circle cx="60.126" cy="37.314" r="0.543"/>
			<circle cx="69.455" cy="37.314" r="0.543"/>
			<circle cx="78.782" cy="37.314" r="0.543"/>
			<circle cx="88.11" cy="37.314" r="0.543"/>
			<circle cx="97.438" cy="37.314" r="0.543"/>
			<circle cx="106.766" cy="37.314" r="0.543"/>
			<circle cx="116.094" cy="37.314" r="0.543"/>
			<circle cx="125.421" cy="37.314" r="0.543"/>
			<circle cx="134.75" cy="37.314" r="0.543"/>
			<circle cx="144.078" cy="37.314" r="0.543"/>
			<circle cx="153.406" cy="37.314" r="0.543"/>
			<circle cx="162.733" cy="37.314" r="0.543"/>
			<circle cx="172.062" cy="37.314" r="0.543"/>
			<circle cx="181.391" cy="37.314" r="0.543"/>
			<circle cx="190.719" cy="37.314" r="0.543"/>
			<circle cx="200.047" cy="37.314" r="0.543"/>
			<circle cx="209.373" cy="37.314" r="0.543"/>
			<circle cx="218.701" cy="37.314" r="0.543"/>
			<circle cx="228.029" cy="37.314" r="0.543"/>
			<circle cx="237.357" cy="37.314" r="0.543"/>
			<circle cx="246.686" cy="37.314" r="0.543"/>
			<circle cx="256.014" cy="37.314" r="0.543"/>
			<circle cx="265.342" cy="37.314" r="0.543"/>
			<circle cx="274.67" cy="37.314" r="0.543"/>
			<circle cx="283.998" cy="37.314" r="0.543"/>
			<circle cx="293.326" cy="37.314" r="0.543"/>
			<circle cx="-9.833" cy="46.642" r="0.698"/>
			<circle cx="-0.505" cy="46.642" r="0.698"/>
			<circle cx="8.822" cy="46.642" r="0.698"/>
			<circle cx="18.15" cy="46.642" r="0.698"/>
			<circle cx="27.479" cy="46.642" r="0.698"/>
			<circle cx="36.806" cy="46.642" r="0.698"/>
			<circle cx="46.134" cy="46.642" r="0.698"/>
			<circle cx="55.462" cy="46.642" r="0.698"/>
			<circle cx="64.791" cy="46.642" r="0.698"/>
			<circle cx="74.119" cy="46.642" r="0.698"/>
			<circle cx="83.446" cy="46.642" r="0.698"/>
			<circle cx="92.774" cy="46.642" r="0.698"/>
			<circle cx="102.103" cy="46.642" r="0.698"/>
			<circle cx="111.43" cy="46.642" r="0.698"/>
			<circle cx="120.757" cy="46.642" r="0.698"/>
			<circle cx="130.085" cy="46.642" r="0.698"/>
			<circle cx="139.414" cy="46.642" r="0.698"/>
			<circle cx="148.742" cy="46.642" r="0.698"/>
			<circle cx="158.07" cy="46.642" r="0.698"/>
			<circle cx="167.398" cy="46.642" r="0.698"/>
			<circle cx="176.727" cy="46.642" r="0.698"/>
			<circle cx="186.055" cy="46.642" r="0.698"/>
			<circle cx="195.383" cy="46.642" r="0.698"/>
			<circle cx="204.709" cy="46.642" r="0.698"/>
			<circle cx="214.037" cy="46.642" r="0.698"/>
			<circle cx="223.365" cy="46.642" r="0.698"/>
			<circle cx="232.693" cy="46.642" r="0.698"/>
			<circle cx="242.021" cy="46.642" r="0.698"/>
			<circle cx="251.35" cy="46.642" r="0.698"/>
			<circle cx="260.678" cy="46.642" r="0.698"/>
			<circle cx="270.006" cy="46.642" r="0.698"/>
			<circle cx="279.334" cy="46.642" r="0.698"/>
			<circle cx="288.662" cy="46.642" r="0.698"/>
			<circle cx="297.99" cy="46.642" r="0.698"/>
			<circle cx="-14.498" cy="55.97" r="0.827"/>
			<circle cx="-5.169" cy="55.97" r="0.827"/>
			<circle cx="4.158" cy="55.97" r="0.827"/>
			<circle cx="13.486" cy="55.97" r="0.827"/>
			<circle cx="22.814" cy="55.97" r="0.827"/>
			<circle cx="32.142" cy="55.97" r="0.827"/>
			<circle cx="41.47" cy="55.97" r="0.827"/>
			<circle cx="50.798" cy="55.97" r="0.827"/>
			<circle cx="60.126" cy="55.97" r="0.827"/>
			<circle cx="69.455" cy="55.97" r="0.827"/>
			<circle cx="78.782" cy="55.97" r="0.827"/>
			<circle cx="88.11" cy="55.97" r="0.827"/>
			<circle cx="97.438" cy="55.97" r="0.827"/>
			<circle cx="106.766" cy="55.97" r="0.827"/>
			<circle cx="116.094" cy="55.97" r="0.827"/>
			<circle cx="125.421" cy="55.97" r="0.827"/>
			<circle cx="134.75" cy="55.97" r="0.827"/>
			<circle cx="144.078" cy="55.97" r="0.827"/>
			<circle cx="153.406" cy="55.97" r="0.827"/>
			<circle cx="162.733" cy="55.97" r="0.827"/>
			<circle cx="172.062" cy="55.97" r="0.827"/>
			<circle cx="181.391" cy="55.97" r="0.827"/>
			<circle cx="190.719" cy="55.97" r="0.827"/>
			<circle cx="200.047" cy="55.97" r="0.827"/>
			<circle cx="209.373" cy="55.97" r="0.827"/>
			<circle cx="218.701" cy="55.97" r="0.827"/>
			<circle cx="228.029" cy="55.97" r="0.827"/>
			<circle cx="237.357" cy="55.97" r="0.827"/>
			<circle cx="246.686" cy="55.97" r="0.827"/>
			<circle cx="256.014" cy="55.97" r="0.827"/>
			<circle cx="265.342" cy="55.97" r="0.827"/>
			<circle cx="274.67" cy="55.97" r="0.827"/>
			<circle cx="283.998" cy="55.97" r="0.827"/>
			<circle cx="293.326" cy="55.97" r="0.827"/>
			<circle cx="-9.833" cy="65.298" r="0.983"/>
			<circle cx="-0.505" cy="65.298" r="0.983"/>
			<circle cx="8.822" cy="65.298" r="0.983"/>
			<circle cx="18.15" cy="65.298" r="0.983"/>
			<circle cx="27.479" cy="65.298" r="0.983"/>
			<circle cx="36.806" cy="65.298" r="0.983"/>
			<circle cx="46.134" cy="65.298" r="0.983"/>
			<circle cx="55.462" cy="65.298" r="0.983"/>
			<circle cx="64.791" cy="65.298" r="0.983"/>
			<circle cx="74.119" cy="65.298" r="0.983"/>
			<circle cx="83.446" cy="65.298" r="0.983"/>
			<circle cx="92.774" cy="65.298" r="0.983"/>
			<circle cx="102.103" cy="65.298" r="0.983"/>
			<circle cx="111.43" cy="65.298" r="0.983"/>
			<circle cx="120.757" cy="65.298" r="0.983"/>
			<circle cx="130.085" cy="65.298" r="0.983"/>
			<circle cx="139.414" cy="65.298" r="0.983"/>
			<circle cx="148.742" cy="65.298" r="0.983"/>
			<circle cx="158.07" cy="65.298" r="0.983"/>
			<circle cx="167.398" cy="65.298" r="0.983"/>
			<circle cx="176.727" cy="65.298" r="0.983"/>
			<circle cx="186.055" cy="65.298" r="0.983"/>
			<circle cx="195.383" cy="65.298" r="0.983"/>
			<circle cx="204.709" cy="65.298" r="0.983"/>
			<circle cx="214.037" cy="65.298" r="0.983"/>
			<circle cx="223.365" cy="65.298" r="0.983"/>
			<circle cx="232.693" cy="65.298" r="0.983"/>
			<circle cx="242.021" cy="65.298" r="0.983"/>
			<circle cx="251.35" cy="65.298" r="0.983"/>
			<circle cx="260.678" cy="65.298" r="0.983"/>
			<circle cx="270.006" cy="65.298" r="0.983"/>
			<circle cx="279.334" cy="65.298" r="0.983"/>
			<circle cx="288.662" cy="65.298" r="0.983"/>
			<circle cx="297.99" cy="65.298" r="0.983"/>
			<circle cx="-14.498" cy="74.626" r="1.138"/>
			<circle cx="-5.169" cy="74.626" r="1.138"/>
			<circle cx="4.158" cy="74.626" r="1.138"/>
			<circle cx="13.486" cy="74.626" r="1.138"/>
			<circle cx="22.814" cy="74.626" r="1.138"/>
			<circle cx="32.142" cy="74.626" r="1.138"/>
			<circle cx="41.47" cy="74.626" r="1.138"/>
			<circle cx="50.798" cy="74.626" r="1.138"/>
			<circle cx="60.126" cy="74.626" r="1.138"/>
			<circle cx="69.455" cy="74.626" r="1.138"/>
			<circle cx="78.782" cy="74.626" r="1.138"/>
			<circle cx="88.11" cy="74.626" r="1.138"/>
			<circle cx="97.438" cy="74.626" r="1.138"/>
			<circle cx="106.766" cy="74.626" r="1.138"/>
			<circle cx="116.094" cy="74.626" r="1.138"/>
			<circle cx="125.421" cy="74.626" r="1.138"/>
			<circle cx="134.75" cy="74.626" r="1.138"/>
			<circle cx="144.078" cy="74.626" r="1.138"/>
			<circle cx="153.406" cy="74.626" r="1.138"/>
			<circle cx="162.733" cy="74.626" r="1.138"/>
			<circle cx="172.062" cy="74.626" r="1.138"/>
			<circle cx="181.391" cy="74.626" r="1.138"/>
			<circle cx="190.719" cy="74.626" r="1.138"/>
			<circle cx="200.047" cy="74.626" r="1.138"/>
			<circle cx="209.373" cy="74.626" r="1.138"/>
			<circle cx="218.701" cy="74.626" r="1.138"/>
			<circle cx="228.029" cy="74.626" r="1.138"/>
			<circle cx="237.357" cy="74.626" r="1.138"/>
			<circle cx="246.686" cy="74.626" r="1.138"/>
			<circle cx="256.014" cy="74.626" r="1.138"/>
			<circle cx="265.342" cy="74.626" r="1.138"/>
			<circle cx="274.67" cy="74.626" r="1.138"/>
			<circle cx="283.998" cy="74.626" r="1.138"/>
			<circle cx="293.326" cy="74.626" r="1.138"/>
			<circle cx="-9.833" cy="83.954" r="1.293"/>
			<circle cx="-0.505" cy="83.954" r="1.293"/>
			<circle cx="8.822" cy="83.954" r="1.293"/>
			<circle cx="18.15" cy="83.954" r="1.293"/>
			<circle cx="27.479" cy="83.954" r="1.293"/>
			<circle cx="36.806" cy="83.954" r="1.293"/>
			<circle cx="46.134" cy="83.954" r="1.293"/>
			<circle cx="55.462" cy="83.954" r="1.293"/>
			<circle cx="64.791" cy="83.954" r="1.293"/>
			<circle cx="74.119" cy="83.954" r="1.293"/>
			<circle cx="83.446" cy="83.954" r="1.293"/>
			<circle cx="92.774" cy="83.954" r="1.293"/>
			<circle cx="102.103" cy="83.954" r="1.293"/>
			<circle cx="111.43" cy="83.954" r="1.293"/>
			<circle cx="120.757" cy="83.954" r="1.293"/>
			<circle cx="130.085" cy="83.954" r="1.293"/>
			<circle cx="139.414" cy="83.954" r="1.293"/>
			<circle cx="148.742" cy="83.954" r="1.293"/>
			<circle cx="158.07" cy="83.954" r="1.293"/>
			<circle cx="167.398" cy="83.954" r="1.293"/>
			<circle cx="176.727" cy="83.954" r="1.293"/>
			<circle cx="186.055" cy="83.954" r="1.293"/>
			<circle cx="195.383" cy="83.954" r="1.293"/>
			<circle cx="204.709" cy="83.954" r="1.293"/>
			<circle cx="214.037" cy="83.954" r="1.293"/>
			<circle cx="223.365" cy="83.954" r="1.293"/>
			<circle cx="232.693" cy="83.954" r="1.293"/>
			<circle cx="242.021" cy="83.954" r="1.293"/>
			<circle cx="251.35" cy="83.954" r="1.293"/>
			<circle cx="260.678" cy="83.954" r="1.293"/>
			<circle cx="270.006" cy="83.954" r="1.293"/>
			<circle cx="279.334" cy="83.954" r="1.293"/>
			<circle cx="288.662" cy="83.954" r="1.293"/>
			<circle cx="297.99" cy="83.954" r="1.293"/>
			<circle cx="-14.498" cy="93.282" r="1.448"/>
			<circle cx="-5.169" cy="93.282" r="1.448"/>
			<circle cx="4.158" cy="93.282" r="1.448"/>
			<circle cx="13.486" cy="93.282" r="1.448"/>
			<circle cx="22.814" cy="93.282" r="1.448"/>
			<circle cx="32.142" cy="93.282" r="1.448"/>
			<circle cx="41.47" cy="93.282" r="1.448"/>
			<circle cx="50.798" cy="93.282" r="1.448"/>
			<circle cx="60.126" cy="93.282" r="1.448"/>
			<circle cx="69.455" cy="93.282" r="1.448"/>
			<circle cx="78.782" cy="93.282" r="1.448"/>
			<circle cx="88.11" cy="93.282" r="1.448"/>
			<circle cx="97.438" cy="93.282" r="1.448"/>
			<circle cx="106.766" cy="93.282" r="1.448"/>
			<circle cx="116.094" cy="93.282" r="1.448"/>
			<circle cx="125.421" cy="93.282" r="1.448"/>
			<circle cx="134.75" cy="93.282" r="1.448"/>
			<circle cx="144.078" cy="93.282" r="1.448"/>
			<circle cx="153.406" cy="93.282" r="1.448"/>
			<circle cx="162.733" cy="93.282" r="1.448"/>
			<circle cx="172.062" cy="93.282" r="1.448"/>
			<circle cx="181.391" cy="93.282" r="1.448"/>
			<circle cx="190.719" cy="93.282" r="1.448"/>
			<circle cx="200.047" cy="93.282" r="1.448"/>
			<circle cx="209.373" cy="93.282" r="1.448"/>
			<circle cx="218.701" cy="93.282" r="1.448"/>
			<circle cx="228.029" cy="93.282" r="1.448"/>
			<circle cx="237.357" cy="93.282" r="1.448"/>
			<circle cx="246.686" cy="93.282" r="1.448"/>
			<circle cx="256.014" cy="93.282" r="1.448"/>
			<circle cx="265.342" cy="93.282" r="1.448"/>
			<circle cx="274.67" cy="93.282" r="1.448"/>
			<circle cx="283.998" cy="93.282" r="1.448"/>
			<circle cx="293.326" cy="93.282" r="1.448"/>
			<circle cx="-9.833" cy="102.61" r="1.604"/>
			<circle cx="-0.505" cy="102.61" r="1.604"/>
			<circle cx="8.822" cy="102.61" r="1.604"/>
			<circle cx="18.15" cy="102.61" r="1.604"/>
			<circle cx="27.479" cy="102.61" r="1.604"/>
			<circle cx="36.806" cy="102.61" r="1.604"/>
			<circle cx="46.134" cy="102.61" r="1.604"/>
			<circle cx="55.462" cy="102.61" r="1.604"/>
			<circle cx="64.791" cy="102.61" r="1.604"/>
			<circle cx="74.119" cy="102.61" r="1.604"/>
			<circle cx="83.446" cy="102.61" r="1.604"/>
			<circle cx="92.774" cy="102.61" r="1.604"/>
			<circle cx="102.103" cy="102.61" r="1.604"/>
			<circle cx="111.43" cy="102.61" r="1.604"/>
			<circle cx="120.757" cy="102.61" r="1.604"/>
			<circle cx="130.085" cy="102.61" r="1.604"/>
			<circle cx="139.414" cy="102.61" r="1.604"/>
			<circle cx="148.742" cy="102.61" r="1.604"/>
			<circle cx="158.07" cy="102.61" r="1.604"/>
			<circle cx="167.398" cy="102.61" r="1.604"/>
			<circle cx="176.727" cy="102.61" r="1.604"/>
			<circle cx="186.055" cy="102.61" r="1.604"/>
			<circle cx="195.383" cy="102.61" r="1.604"/>
			<path d="M204.709,104.213c0.887,0,1.605-0.718,1.605-1.604s-0.719-1.604-1.605-1.604c-0.883,0-1.602,0.718-1.602,1.604
				S203.826,104.213,204.709,104.213z"/>
			<path d="M214.037,104.213c0.887,0,1.605-0.718,1.605-1.604s-0.719-1.604-1.605-1.604c-0.883,0-1.602,0.718-1.602,1.604
				S213.154,104.213,214.037,104.213z"/>
			<circle cx="223.365" cy="102.61" r="1.604"/>
			<circle cx="232.693" cy="102.61" r="1.604"/>
			<circle cx="242.021" cy="102.61" r="1.604"/>
			<circle cx="251.35" cy="102.61" r="1.604"/>
			<circle cx="260.678" cy="102.61" r="1.604"/>
			<circle cx="270.006" cy="102.61" r="1.604"/>
			<circle cx="279.334" cy="102.61" r="1.604"/>
			<circle cx="288.662" cy="102.61" r="1.604"/>
			<circle cx="297.99" cy="102.61" r="1.604"/>
			<circle cx="-14.498" cy="111.938" r="1.759"/>
			<circle cx="-5.169" cy="111.938" r="1.759"/>
			<circle cx="4.158" cy="111.938" r="1.759"/>
			<circle cx="13.486" cy="111.938" r="1.759"/>
			<circle cx="22.814" cy="111.938" r="1.759"/>
			<circle cx="32.142" cy="111.938" r="1.759"/>
			<circle cx="41.47" cy="111.938" r="1.759"/>
			<circle cx="50.798" cy="111.938" r="1.759"/>
			<circle cx="60.126" cy="111.938" r="1.759"/>
			<circle cx="69.455" cy="111.938" r="1.759"/>
			<circle cx="78.782" cy="111.938" r="1.759"/>
			<circle cx="88.11" cy="111.938" r="1.759"/>
			<circle cx="97.438" cy="111.938" r="1.759"/>
			<circle cx="106.766" cy="111.938" r="1.759"/>
			<circle cx="116.094" cy="111.938" r="1.759"/>
			<circle cx="125.421" cy="111.938" r="1.759"/>
			<circle cx="134.75" cy="111.938" r="1.759"/>
			<circle cx="144.078" cy="111.938" r="1.759"/>
			<circle cx="153.406" cy="111.938" r="1.759"/>
			<circle cx="162.733" cy="111.938" r="1.759"/>
			<circle cx="172.062" cy="111.938" r="1.759"/>
			<circle cx="181.391" cy="111.938" r="1.759"/>
			<circle cx="190.719" cy="111.938" r="1.759"/>
			<circle cx="200.047" cy="111.938" r="1.759"/>
			<circle cx="209.373" cy="111.938" r="1.759"/>
			<circle cx="218.701" cy="111.938" r="1.759"/>
			<circle cx="228.029" cy="111.938" r="1.759"/>
			<circle cx="237.357" cy="111.938" r="1.759"/>
			<circle cx="246.686" cy="111.938" r="1.759"/>
			<circle cx="256.014" cy="111.938" r="1.759"/>
			<circle cx="265.342" cy="111.938" r="1.759"/>
			<circle cx="274.67" cy="111.938" r="1.759"/>
			<circle cx="283.998" cy="111.938" r="1.759"/>
			<circle cx="293.326" cy="111.938" r="1.759"/>
			<circle cx="-9.833" cy="121.266" r="1.94"/>
			<circle cx="-0.505" cy="121.266" r="1.94"/>
			<circle cx="8.822" cy="121.266" r="1.94"/>
			<circle cx="18.15" cy="121.266" r="1.94"/>
			<circle cx="27.479" cy="121.266" r="1.94"/>
			<circle cx="36.806" cy="121.266" r="1.94"/>
			<circle cx="46.134" cy="121.266" r="1.94"/>
			<circle cx="55.462" cy="121.266" r="1.94"/>
			<circle cx="64.791" cy="121.266" r="1.94"/>
			<circle cx="74.119" cy="121.266" r="1.94"/>
			<circle cx="83.446" cy="121.266" r="1.94"/>
			<circle cx="92.774" cy="121.266" r="1.94"/>
			<circle cx="102.103" cy="121.266" r="1.94"/>
			<circle cx="111.43" cy="121.266" r="1.94"/>
			<circle cx="120.757" cy="121.266" r="1.94"/>
			<circle cx="130.085" cy="121.266" r="1.94"/>
			<circle cx="139.414" cy="121.266" r="1.94"/>
			<circle cx="148.742" cy="121.266" r="1.94"/>
			<circle cx="158.07" cy="121.266" r="1.94"/>
			<circle cx="167.398" cy="121.266" r="1.94"/>
			<circle cx="176.727" cy="121.266" r="1.94"/>
			<circle cx="186.055" cy="121.266" r="1.94"/>
			<circle cx="195.383" cy="121.266" r="1.94"/>
			<circle cx="204.709" cy="121.266" r="1.94"/>
			<circle cx="214.037" cy="121.266" r="1.94"/>
			<circle cx="223.365" cy="121.266" r="1.94"/>
			<circle cx="232.693" cy="121.266" r="1.94"/>
			<circle cx="242.021" cy="121.266" r="1.94"/>
			<circle cx="251.35" cy="121.266" r="1.94"/>
			<circle cx="260.678" cy="121.266" r="1.94"/>
			<circle cx="270.006" cy="121.266" r="1.94"/>
			<circle cx="279.334" cy="121.266" r="1.94"/>
			<circle cx="288.662" cy="121.266" r="1.94"/>
			<circle cx="297.99" cy="121.266" r="1.94"/>
			<circle cx="-14.498" cy="130.594" r="2.095"/>
			<circle cx="-5.169" cy="130.594" r="2.095"/>
			<circle cx="4.158" cy="130.594" r="2.095"/>
			<circle cx="13.486" cy="130.594" r="2.095"/>
			<circle cx="22.814" cy="130.594" r="2.095"/>
			<circle cx="32.142" cy="130.594" r="2.095"/>
			<circle cx="41.47" cy="130.594" r="2.095"/>
			<circle cx="50.798" cy="130.594" r="2.095"/>
			<circle cx="60.126" cy="130.594" r="2.095"/>
			<circle cx="69.455" cy="130.594" r="2.095"/>
			<circle cx="78.782" cy="130.594" r="2.095"/>
			<circle cx="88.11" cy="130.594" r="2.095"/>
			<circle cx="97.438" cy="130.594" r="2.095"/>
			<circle cx="106.766" cy="130.594" r="2.095"/>
			<circle cx="116.094" cy="130.594" r="2.095"/>
			<circle cx="125.421" cy="130.594" r="2.095"/>
			<circle cx="134.75" cy="130.594" r="2.095"/>
			<circle cx="144.078" cy="130.594" r="2.095"/>
			<circle cx="153.406" cy="130.594" r="2.095"/>
			<circle cx="162.733" cy="130.594" r="2.095"/>
			<circle cx="172.062" cy="130.594" r="2.095"/>
			<circle cx="181.391" cy="130.594" r="2.095"/>
			<circle cx="190.719" cy="130.594" r="2.095"/>
			<circle cx="200.047" cy="130.594" r="2.095"/>
			<circle cx="209.373" cy="130.594" r="2.095"/>
			<circle cx="218.701" cy="130.594" r="2.095"/>
			<circle cx="228.029" cy="130.594" r="2.095"/>
			<circle cx="237.357" cy="130.594" r="2.095"/>
			<circle cx="246.686" cy="130.594" r="2.095"/>
			<circle cx="256.014" cy="130.594" r="2.095"/>
			<circle cx="265.342" cy="130.594" r="2.095"/>
			<circle cx="274.67" cy="130.594" r="2.095"/>
			<circle cx="283.998" cy="130.594" r="2.095"/>
			<circle cx="293.326" cy="130.594" r="2.095"/>
			<circle cx="-9.833" cy="139.922" r="2.276"/>
			<circle cx="-0.505" cy="139.922" r="2.276"/>
			<circle cx="8.822" cy="139.922" r="2.276"/>
			<circle cx="18.15" cy="139.922" r="2.276"/>
			<circle cx="27.479" cy="139.922" r="2.276"/>
			<circle cx="36.806" cy="139.922" r="2.276"/>
			<circle cx="46.134" cy="139.922" r="2.276"/>
			<circle cx="55.462" cy="139.922" r="2.276"/>
			<circle cx="64.791" cy="139.922" r="2.276"/>
			<circle cx="74.119" cy="139.922" r="2.276"/>
			<circle cx="83.446" cy="139.922" r="2.276"/>
			<circle cx="92.774" cy="139.922" r="2.276"/>
			<circle cx="102.103" cy="139.922" r="2.276"/>
			<circle cx="111.43" cy="139.922" r="2.276"/>
			<circle cx="120.757" cy="139.922" r="2.276"/>
			<circle cx="130.085" cy="139.922" r="2.276"/>
			<circle cx="139.414" cy="139.922" r="2.276"/>
			<circle cx="148.742" cy="139.922" r="2.276"/>
			<circle cx="158.07" cy="139.922" r="2.276"/>
			<circle cx="167.398" cy="139.922" r="2.276"/>
			<circle cx="176.727" cy="139.922" r="2.276"/>
			<circle cx="186.055" cy="139.922" r="2.276"/>
			<circle cx="195.383" cy="139.922" r="2.276"/>
			<circle cx="204.709" cy="139.922" r="2.276"/>
			<circle cx="214.037" cy="139.922" r="2.276"/>
			<circle cx="223.365" cy="139.922" r="2.276"/>
			<circle cx="232.693" cy="139.922" r="2.276"/>
			<circle cx="242.021" cy="139.922" r="2.276"/>
			<circle cx="251.35" cy="139.922" r="2.276"/>
			<circle cx="260.678" cy="139.922" r="2.276"/>
			<circle cx="270.006" cy="139.922" r="2.276"/>
			<circle cx="279.334" cy="139.922" r="2.276"/>
			<circle cx="288.662" cy="139.922" r="2.276"/>
			<circle cx="297.99" cy="139.922" r="2.276"/>
			<circle cx="-14.498" cy="149.25" r="2.457"/>
			<circle cx="-5.169" cy="149.25" r="2.457"/>
			<circle cx="4.158" cy="149.25" r="2.457"/>
			<circle cx="13.486" cy="149.25" r="2.457"/>
			<circle cx="22.814" cy="149.25" r="2.457"/>
			<circle cx="32.142" cy="149.25" r="2.457"/>
			<circle cx="41.47" cy="149.25" r="2.457"/>
			<circle cx="50.798" cy="149.25" r="2.457"/>
			<circle cx="60.126" cy="149.25" r="2.457"/>
			<circle cx="69.455" cy="149.25" r="2.457"/>
			<circle cx="78.782" cy="149.25" r="2.457"/>
			<circle cx="88.11" cy="149.25" r="2.457"/>
			<circle cx="97.438" cy="149.25" r="2.457"/>
			<circle cx="106.766" cy="149.25" r="2.457"/>
			<circle cx="116.094" cy="149.25" r="2.457"/>
			<circle cx="125.421" cy="149.25" r="2.457"/>
			<circle cx="134.75" cy="149.25" r="2.457"/>
			<circle cx="144.078" cy="149.25" r="2.457"/>
			<circle cx="153.406" cy="149.25" r="2.457"/>
			<circle cx="162.733" cy="149.25" r="2.457"/>
			<circle cx="172.062" cy="149.25" r="2.457"/>
			<circle cx="181.391" cy="149.25" r="2.457"/>
			<circle cx="190.719" cy="149.25" r="2.457"/>
			<circle cx="200.047" cy="149.25" r="2.457"/>
			<circle cx="209.373" cy="149.25" r="2.457"/>
			<circle cx="218.701" cy="149.25" r="2.457"/>
			<circle cx="228.029" cy="149.25" r="2.457"/>
			<circle cx="237.357" cy="149.25" r="2.457"/>
			<circle cx="246.686" cy="149.25" r="2.457"/>
			<circle cx="256.014" cy="149.25" r="2.457"/>
			<circle cx="265.342" cy="149.25" r="2.457"/>
			<circle cx="274.67" cy="149.25" r="2.457"/>
			<circle cx="283.998" cy="149.25" r="2.457"/>
			<circle cx="293.326" cy="149.25" r="2.457"/>
			<circle cx="-9.833" cy="158.577" r="2.612"/>
			<circle cx="-0.505" cy="158.577" r="2.612"/>
			<circle cx="8.822" cy="158.577" r="2.612"/>
			<circle cx="18.15" cy="158.577" r="2.612"/>
			<circle cx="27.479" cy="158.577" r="2.612"/>
			<circle cx="36.806" cy="158.577" r="2.612"/>
			<circle cx="46.134" cy="158.577" r="2.612"/>
			<circle cx="55.462" cy="158.577" r="2.612"/>
			<circle cx="64.791" cy="158.577" r="2.612"/>
			<circle cx="74.119" cy="158.577" r="2.612"/>
			<circle cx="83.446" cy="158.577" r="2.612"/>
			<circle cx="92.774" cy="158.577" r="2.612"/>
			<circle cx="102.103" cy="158.577" r="2.612"/>
			<circle cx="111.43" cy="158.577" r="2.612"/>
			<circle cx="120.757" cy="158.577" r="2.612"/>
			<circle cx="130.085" cy="158.577" r="2.612"/>
			<circle cx="139.414" cy="158.577" r="2.612"/>
			<circle cx="148.742" cy="158.577" r="2.612"/>
			<circle cx="158.07" cy="158.577" r="2.612"/>
			<circle cx="167.398" cy="158.577" r="2.612"/>
			<circle cx="176.727" cy="158.577" r="2.612"/>
			<circle cx="186.055" cy="158.577" r="2.612"/>
			<circle cx="195.383" cy="158.577" r="2.612"/>
			<path d="M204.709,161.189c1.443,0,2.615-1.169,2.615-2.612c0-1.441-1.172-2.612-2.615-2.612c-1.441,0-2.611,1.171-2.611,2.612
				C202.098,160.021,203.268,161.189,204.709,161.189z"/>
			<circle cx="214.037" cy="158.577" r="2.612"/>
			<circle cx="223.365" cy="158.577" r="2.612"/>
			<circle cx="232.693" cy="158.577" r="2.612"/>
			<circle cx="242.021" cy="158.577" r="2.612"/>
			<circle cx="251.35" cy="158.577" r="2.612"/>
			<circle cx="260.678" cy="158.577" r="2.612"/>
			<circle cx="270.006" cy="158.577" r="2.612"/>
			<circle cx="279.334" cy="158.577" r="2.612"/>
			<circle cx="288.662" cy="158.577" r="2.612"/>
			<circle cx="297.99" cy="158.577" r="2.612"/>
			<circle cx="-14.498" cy="167.906" r="2.82"/>
			<circle cx="-5.169" cy="167.906" r="2.82"/>
			<circle cx="4.158" cy="167.906" r="2.82"/>
			<circle cx="13.486" cy="167.906" r="2.82"/>
			<circle cx="22.814" cy="167.906" r="2.82"/>
			<circle cx="32.142" cy="167.906" r="2.82"/>
			<circle cx="41.47" cy="167.906" r="2.82"/>
			<circle cx="50.798" cy="167.906" r="2.82"/>
			<circle cx="60.126" cy="167.906" r="2.82"/>
			<circle cx="69.455" cy="167.906" r="2.82"/>
			<circle cx="78.782" cy="167.906" r="2.82"/>
			<circle cx="88.11" cy="167.906" r="2.82"/>
			<circle cx="97.438" cy="167.906" r="2.82"/>
			<circle cx="106.766" cy="167.906" r="2.82"/>
			<circle cx="116.094" cy="167.906" r="2.82"/>
			<circle cx="125.421" cy="167.906" r="2.82"/>
			<circle cx="134.75" cy="167.906" r="2.82"/>
			<circle cx="144.078" cy="167.906" r="2.82"/>
			<circle cx="153.406" cy="167.906" r="2.82"/>
			<circle cx="162.733" cy="167.906" r="2.82"/>
			<circle cx="172.062" cy="167.906" r="2.82"/>
			<circle cx="181.391" cy="167.906" r="2.82"/>
			<circle cx="190.719" cy="167.906" r="2.82"/>
			<circle cx="200.047" cy="167.906" r="2.82"/>
			<circle cx="209.373" cy="167.906" r="2.82"/>
			<circle cx="218.701" cy="167.906" r="2.82"/>
			<circle cx="228.029" cy="167.906" r="2.82"/>
			<circle cx="237.357" cy="167.906" r="2.82"/>
			<circle cx="246.686" cy="167.906" r="2.82"/>
			<circle cx="256.014" cy="167.906" r="2.82"/>
			<circle cx="265.342" cy="167.906" r="2.82"/>
			<circle cx="274.67" cy="167.906" r="2.82"/>
			<circle cx="283.998" cy="167.906" r="2.82"/>
			<circle cx="293.326" cy="167.906" r="2.82"/>
			<circle cx="-9.833" cy="177.234" r="2.975"/>
			<circle cx="-0.505" cy="177.234" r="2.975"/>
			<circle cx="8.822" cy="177.234" r="2.975"/>
			<circle cx="18.15" cy="177.234" r="2.975"/>
			<circle cx="27.479" cy="177.234" r="2.975"/>
			<circle cx="36.806" cy="177.234" r="2.975"/>
			<circle cx="46.134" cy="177.234" r="2.975"/>
			<circle cx="55.462" cy="177.234" r="2.975"/>
			<circle cx="64.791" cy="177.234" r="2.975"/>
			<circle cx="74.119" cy="177.234" r="2.975"/>
			<circle cx="83.446" cy="177.234" r="2.975"/>
			<circle cx="92.774" cy="177.234" r="2.975"/>
			<circle cx="102.103" cy="177.234" r="2.975"/>
			<circle cx="111.43" cy="177.234" r="2.975"/>
			<circle cx="120.757" cy="177.234" r="2.975"/>
			<circle cx="130.085" cy="177.234" r="2.975"/>
			<circle cx="139.414" cy="177.234" r="2.975"/>
			<circle cx="148.742" cy="177.234" r="2.975"/>
			<circle cx="158.07" cy="177.234" r="2.975"/>
			<circle cx="167.398" cy="177.234" r="2.975"/>
			<circle cx="176.727" cy="177.234" r="2.975"/>
			<circle cx="186.055" cy="177.234" r="2.975"/>
			<circle cx="195.383" cy="177.234" r="2.975"/>
			<circle cx="204.709" cy="177.234" r="2.975"/>
			<circle cx="214.037" cy="177.234" r="2.975"/>
			<circle cx="223.365" cy="177.234" r="2.975"/>
			<circle cx="232.693" cy="177.234" r="2.975"/>
			<circle cx="242.021" cy="177.234" r="2.975"/>
			<circle cx="251.35" cy="177.234" r="2.975"/>
			<circle cx="260.678" cy="177.234" r="2.975"/>
			<circle cx="270.006" cy="177.234" r="2.975"/>
			<circle cx="279.334" cy="177.234" r="2.975"/>
			<circle cx="288.662" cy="177.234" r="2.975"/>
			<circle cx="297.99" cy="177.234" r="2.975"/>
			<circle cx="-14.498" cy="186.562" r="3.155"/>
			<circle cx="-5.169" cy="186.562" r="3.155"/>
			<circle cx="4.158" cy="186.562" r="3.155"/>
			<circle cx="13.486" cy="186.562" r="3.155"/>
			<circle cx="22.814" cy="186.562" r="3.155"/>
			<circle cx="32.142" cy="186.562" r="3.155"/>
			<circle cx="41.47" cy="186.562" r="3.155"/>
			<circle cx="50.798" cy="186.562" r="3.155"/>
			<circle cx="60.126" cy="186.562" r="3.155"/>
			<circle cx="69.455" cy="186.562" r="3.155"/>
			<circle cx="78.782" cy="186.562" r="3.155"/>
			<circle cx="88.11" cy="186.562" r="3.155"/>
			<circle cx="97.438" cy="186.562" r="3.155"/>
			<circle cx="106.766" cy="186.562" r="3.155"/>
			<circle cx="116.094" cy="186.562" r="3.155"/>
			<circle cx="125.421" cy="186.562" r="3.155"/>
			<circle cx="134.75" cy="186.562" r="3.155"/>
			<circle cx="144.078" cy="186.562" r="3.155"/>
			<circle cx="153.406" cy="186.562" r="3.155"/>
			<circle cx="162.733" cy="186.562" r="3.155"/>
			<circle cx="172.062" cy="186.562" r="3.155"/>
			<circle cx="181.391" cy="186.562" r="3.155"/>
			<circle cx="190.719" cy="186.562" r="3.155"/>
			<circle cx="200.047" cy="186.562" r="3.155"/>
			<path d="M209.373,189.717c1.744,0,3.156-1.412,3.156-3.154c0-1.744-1.412-3.156-3.156-3.156c-1.74,0-3.154,1.412-3.154,3.156
				C206.219,188.305,207.633,189.717,209.373,189.717z"/>
			<path d="M218.701,189.717c1.744,0,3.156-1.412,3.156-3.154c0-1.744-1.412-3.156-3.156-3.156c-1.74,0-3.154,1.412-3.154,3.156
				C215.547,188.305,216.961,189.717,218.701,189.717z"/>
			<circle cx="228.029" cy="186.562" r="3.155"/>
			<circle cx="237.357" cy="186.562" r="3.155"/>
			<circle cx="246.686" cy="186.562" r="3.155"/>
			<circle cx="256.014" cy="186.562" r="3.155"/>
			<circle cx="265.342" cy="186.562" r="3.155"/>
			<circle cx="274.67" cy="186.562" r="3.155"/>
			<circle cx="283.998" cy="186.562" r="3.155"/>
			<circle cx="293.326" cy="186.562" r="3.155"/>
			<circle cx="-9.833" cy="195.89" r="3.362"/>
			<circle cx="-0.505" cy="195.89" r="3.362"/>
			<circle cx="8.822" cy="195.89" r="3.362"/>
			<circle cx="18.15" cy="195.89" r="3.362"/>
			<circle cx="27.479" cy="195.89" r="3.362"/>
			<circle cx="36.806" cy="195.89" r="3.362"/>
			<circle cx="46.134" cy="195.89" r="3.362"/>
			<circle cx="55.462" cy="195.89" r="3.362"/>
			<circle cx="64.791" cy="195.89" r="3.362"/>
			<circle cx="74.119" cy="195.89" r="3.362"/>
			<circle cx="83.446" cy="195.89" r="3.362"/>
			<circle cx="92.774" cy="195.89" r="3.362"/>
			<circle cx="102.103" cy="195.89" r="3.362"/>
			<circle cx="111.43" cy="195.89" r="3.362"/>
			<circle cx="120.757" cy="195.89" r="3.362"/>
			<circle cx="130.085" cy="195.89" r="3.362"/>
			<circle cx="139.414" cy="195.89" r="3.362"/>
			<circle cx="148.742" cy="195.89" r="3.362"/>
			<circle cx="158.07" cy="195.89" r="3.362"/>
			<circle cx="167.398" cy="195.89" r="3.362"/>
			<circle cx="176.727" cy="195.89" r="3.362"/>
			<circle cx="186.055" cy="195.89" r="3.362"/>
			<circle cx="195.383" cy="195.89" r="3.362"/>
			<path d="M204.709,199.252c1.857,0,3.365-1.505,3.365-3.362c0-1.856-1.508-3.362-3.365-3.362c-1.855,0-3.361,1.506-3.361,3.362
				C201.348,197.747,202.854,199.252,204.709,199.252z"/>
			<circle cx="214.037" cy="195.89" r="3.362"/>
			<circle cx="223.365" cy="195.89" r="3.362"/>
			<circle cx="232.693" cy="195.89" r="3.362"/>
			<circle cx="242.021" cy="195.89" r="3.362"/>
			<circle cx="251.35" cy="195.89" r="3.362"/>
			<circle cx="260.678" cy="195.89" r="3.362"/>
			<circle cx="270.006" cy="195.89" r="3.362"/>
			<circle cx="279.334" cy="195.89" r="3.362"/>
			<circle cx="288.662" cy="195.89" r="3.362"/>
			<circle cx="297.99" cy="195.89" r="3.362"/>
			<circle cx="-14.498" cy="205.218" r="3.518"/>
			<circle cx="-5.169" cy="205.218" r="3.518"/>
			<circle cx="4.158" cy="205.218" r="3.518"/>
			<circle cx="13.486" cy="205.218" r="3.518"/>
			<circle cx="22.814" cy="205.218" r="3.518"/>
			<circle cx="32.142" cy="205.218" r="3.518"/>
			<circle cx="41.47" cy="205.218" r="3.518"/>
			<circle cx="50.798" cy="205.218" r="3.518"/>
			<circle cx="60.126" cy="205.218" r="3.518"/>
			<circle cx="69.455" cy="205.218" r="3.518"/>
			<circle cx="78.782" cy="205.218" r="3.518"/>
			<circle cx="88.11" cy="205.218" r="3.518"/>
			<circle cx="97.438" cy="205.218" r="3.518"/>
			<circle cx="106.766" cy="205.218" r="3.518"/>
			<circle cx="116.094" cy="205.218" r="3.518"/>
			<circle cx="125.421" cy="205.218" r="3.518"/>
			<circle cx="134.75" cy="205.218" r="3.518"/>
			<circle cx="144.078" cy="205.218" r="3.518"/>
			<circle cx="153.406" cy="205.218" r="3.518"/>
			<circle cx="162.733" cy="205.218" r="3.518"/>
			<circle cx="172.062" cy="205.218" r="3.518"/>
			<circle cx="181.391" cy="205.218" r="3.518"/>
			<circle cx="190.719" cy="205.218" r="3.518"/>
			<circle cx="200.047" cy="205.218" r="3.518"/>
			<circle cx="209.373" cy="205.218" r="3.518"/>
			<circle cx="218.701" cy="205.218" r="3.518"/>
			<circle cx="228.029" cy="205.218" r="3.518"/>
			<circle cx="237.357" cy="205.218" r="3.518"/>
			<circle cx="246.686" cy="205.218" r="3.518"/>
			<circle cx="256.014" cy="205.218" r="3.518"/>
			<circle cx="265.342" cy="205.218" r="3.518"/>
			<circle cx="274.67" cy="205.218" r="3.518"/>
			<circle cx="283.998" cy="205.218" r="3.518"/>
			<circle cx="293.326" cy="205.218" r="3.518"/>
			<circle cx="-9.833" cy="214.546" r="3.725"/>
			<circle cx="-0.505" cy="214.546" r="3.725"/>
			<circle cx="8.822" cy="214.546" r="3.725"/>
			<circle cx="18.15" cy="214.546" r="3.725"/>
			<circle cx="27.479" cy="214.546" r="3.725"/>
			<circle cx="36.806" cy="214.546" r="3.725"/>
			<circle cx="46.134" cy="214.546" r="3.725"/>
			<circle cx="55.462" cy="214.546" r="3.725"/>
			<circle cx="64.791" cy="214.546" r="3.725"/>
			<circle cx="74.119" cy="214.546" r="3.725"/>
			<circle cx="83.446" cy="214.546" r="3.725"/>
			<circle cx="92.774" cy="214.546" r="3.725"/>
			<circle cx="102.103" cy="214.546" r="3.725"/>
			<circle cx="111.43" cy="214.546" r="3.725"/>
			<circle cx="120.757" cy="214.546" r="3.725"/>
			<circle cx="130.085" cy="214.546" r="3.725"/>
			<circle cx="139.414" cy="214.546" r="3.725"/>
			<circle cx="148.742" cy="214.546" r="3.725"/>
			<circle cx="158.07" cy="214.546" r="3.725"/>
			<circle cx="167.398" cy="214.546" r="3.725"/>
			<circle cx="176.727" cy="214.546" r="3.725"/>
			<circle cx="186.055" cy="214.546" r="3.725"/>
			<circle cx="195.383" cy="214.546" r="3.725"/>
			<circle cx="204.709" cy="214.546" r="3.725"/>
			<circle cx="214.037" cy="214.546" r="3.725"/>
			<circle cx="223.365" cy="214.546" r="3.725"/>
			<circle cx="232.693" cy="214.546" r="3.725"/>
			<circle cx="242.021" cy="214.546" r="3.725"/>
			<circle cx="251.35" cy="214.546" r="3.725"/>
			<circle cx="260.678" cy="214.546" r="3.725"/>
			<circle cx="270.006" cy="214.546" r="3.725"/>
			<circle cx="279.334" cy="214.546" r="3.725"/>
			<circle cx="288.662" cy="214.546" r="3.725"/>
			<circle cx="297.99" cy="214.546" r="3.725"/>
			<circle cx="-14.498" cy="223.874" r="3.88"/>
			<circle cx="-5.169" cy="223.874" r="3.88"/>
			<circle cx="4.158" cy="223.874" r="3.88"/>
			<circle cx="13.486" cy="223.874" r="3.88"/>
			<circle cx="22.814" cy="223.874" r="3.88"/>
			<circle cx="32.142" cy="223.874" r="3.88"/>
			<circle cx="41.47" cy="223.874" r="3.88"/>
			<circle cx="50.798" cy="223.874" r="3.88"/>
			<circle cx="60.126" cy="223.874" r="3.88"/>
			<circle cx="69.455" cy="223.874" r="3.88"/>
			<circle cx="78.782" cy="223.874" r="3.88"/>
			<circle cx="88.11" cy="223.874" r="3.88"/>
			<circle cx="97.438" cy="223.874" r="3.88"/>
			<circle cx="106.766" cy="223.874" r="3.88"/>
			<circle cx="116.094" cy="223.874" r="3.88"/>
			<circle cx="125.421" cy="223.874" r="3.88"/>
			<circle cx="134.75" cy="223.874" r="3.88"/>
			<circle cx="144.078" cy="223.874" r="3.88"/>
			<circle cx="153.406" cy="223.874" r="3.88"/>
			<circle cx="162.733" cy="223.874" r="3.88"/>
			<circle cx="172.062" cy="223.874" r="3.88"/>
			<circle cx="181.391" cy="223.874" r="3.88"/>
			<circle cx="190.719" cy="223.874" r="3.88"/>
			<circle cx="200.047" cy="223.874" r="3.88"/>
			<circle cx="209.373" cy="223.874" r="3.88"/>
			<circle cx="218.701" cy="223.874" r="3.88"/>
			<circle cx="228.029" cy="223.874" r="3.88"/>
			<circle cx="237.357" cy="223.874" r="3.88"/>
			<circle cx="246.686" cy="223.874" r="3.88"/>
			<circle cx="256.014" cy="223.874" r="3.88"/>
			<circle cx="265.342" cy="223.874" r="3.88"/>
			<circle cx="274.67" cy="223.874" r="3.88"/>
			<circle cx="283.998" cy="223.874" r="3.88"/>
			<circle cx="293.326" cy="223.874" r="3.88"/>
			<circle cx="-9.833" cy="233.202" r="4.087"/>
			<circle cx="-0.505" cy="233.202" r="4.087"/>
			<circle cx="8.822" cy="233.202" r="4.087"/>
			<circle cx="18.15" cy="233.202" r="4.087"/>
			<circle cx="27.479" cy="233.202" r="4.087"/>
			<circle cx="36.806" cy="233.202" r="4.087"/>
			<circle cx="46.134" cy="233.202" r="4.087"/>
			<circle cx="55.462" cy="233.202" r="4.087"/>
			<circle cx="64.791" cy="233.202" r="4.087"/>
			<circle cx="74.119" cy="233.202" r="4.087"/>
			<circle cx="83.446" cy="233.202" r="4.087"/>
			<circle cx="92.774" cy="233.202" r="4.087"/>
			<circle cx="102.103" cy="233.202" r="4.087"/>
			<circle cx="111.43" cy="233.202" r="4.087"/>
			<circle cx="120.757" cy="233.202" r="4.087"/>
			<circle cx="130.085" cy="233.202" r="4.087"/>
			<circle cx="139.414" cy="233.202" r="4.087"/>
			<circle cx="148.742" cy="233.202" r="4.087"/>
			<circle cx="158.07" cy="233.202" r="4.087"/>
			<circle cx="167.398" cy="233.202" r="4.087"/>
			<circle cx="176.727" cy="233.202" r="4.087"/>
			<circle cx="186.055" cy="233.202" r="4.087"/>
			<circle cx="195.383" cy="233.202" r="4.087"/>
			<circle cx="204.709" cy="233.202" r="4.087"/>
			<circle cx="214.037" cy="233.202" r="4.087"/>
			<circle cx="223.365" cy="233.202" r="4.087"/>
			<circle cx="232.693" cy="233.202" r="4.087"/>
			<circle cx="242.021" cy="233.202" r="4.087"/>
			<circle cx="251.35" cy="233.202" r="4.087"/>
			<circle cx="260.678" cy="233.202" r="4.087"/>
			<circle cx="270.006" cy="233.202" r="4.087"/>
			<circle cx="279.334" cy="233.202" r="4.087"/>
			<circle cx="288.662" cy="233.202" r="4.087"/>
			<circle cx="297.99" cy="233.202" r="4.087"/>
			<circle cx="-14.498" cy="242.529" r="4.268"/>
			<circle cx="-5.169" cy="242.529" r="4.268"/>
			<circle cx="4.158" cy="242.529" r="4.268"/>
			<circle cx="13.486" cy="242.529" r="4.268"/>
			<circle cx="22.814" cy="242.529" r="4.268"/>
			<circle cx="32.142" cy="242.529" r="4.268"/>
			<circle cx="41.47" cy="242.529" r="4.268"/>
			<circle cx="50.798" cy="242.529" r="4.268"/>
			<circle cx="60.126" cy="242.529" r="4.268"/>
			<circle cx="69.455" cy="242.529" r="4.268"/>
			<circle cx="78.782" cy="242.529" r="4.268"/>
			<circle cx="88.11" cy="242.529" r="4.268"/>
			<circle cx="97.438" cy="242.529" r="4.268"/>
			<circle cx="106.766" cy="242.529" r="4.268"/>
			<circle cx="116.094" cy="242.529" r="4.268"/>
			<circle cx="125.421" cy="242.529" r="4.268"/>
			<circle cx="134.75" cy="242.529" r="4.268"/>
			<circle cx="144.078" cy="242.529" r="4.268"/>
			<circle cx="153.406" cy="242.529" r="4.268"/>
			<circle cx="162.733" cy="242.529" r="4.268"/>
			<circle cx="172.062" cy="242.529" r="4.268"/>
			<circle cx="181.391" cy="242.529" r="4.268"/>
			<circle cx="190.719" cy="242.529" r="4.268"/>
			<circle cx="200.047" cy="242.529" r="4.268"/>
			<circle cx="209.373" cy="242.529" r="4.268"/>
			<circle cx="218.701" cy="242.529" r="4.268"/>
			<circle cx="228.029" cy="242.529" r="4.268"/>
			<circle cx="237.357" cy="242.529" r="4.268"/>
			<circle cx="246.686" cy="242.529" r="4.268"/>
			<circle cx="256.014" cy="242.529" r="4.268"/>
			<circle cx="265.342" cy="242.529" r="4.268"/>
			<circle cx="274.67" cy="242.529" r="4.268"/>
			<circle cx="283.998" cy="242.529" r="4.268"/>
			<circle cx="293.326" cy="242.529" r="4.268"/>
			<circle cx="-9.833" cy="251.857" r="4.449"/>
			<circle cx="-0.505" cy="251.857" r="4.449"/>
			<circle cx="8.822" cy="251.857" r="4.449"/>
			<circle cx="18.15" cy="251.857" r="4.449"/>
			<circle cx="27.479" cy="251.857" r="4.449"/>
			<circle cx="36.806" cy="251.857" r="4.449"/>
			<circle cx="46.134" cy="251.857" r="4.449"/>
			<circle cx="55.462" cy="251.857" r="4.449"/>
			<circle cx="64.791" cy="251.857" r="4.449"/>
			<circle cx="74.119" cy="251.857" r="4.449"/>
			<circle cx="83.446" cy="251.857" r="4.449"/>
			<circle cx="92.774" cy="251.857" r="4.449"/>
			<circle cx="102.103" cy="251.857" r="4.449"/>
			<circle cx="111.43" cy="251.857" r="4.449"/>
			<circle cx="120.757" cy="251.857" r="4.449"/>
			<circle cx="130.085" cy="251.857" r="4.449"/>
			<circle cx="139.414" cy="251.857" r="4.449"/>
			<circle cx="148.742" cy="251.857" r="4.449"/>
			<circle cx="158.07" cy="251.857" r="4.449"/>
			<circle cx="167.398" cy="251.857" r="4.449"/>
			<circle cx="176.727" cy="251.857" r="4.449"/>
			<circle cx="186.055" cy="251.857" r="4.449"/>
			<circle cx="195.383" cy="251.857" r="4.449"/>
			<path d="M204.709,256.307c2.459,0,4.451-1.992,4.451-4.449s-1.992-4.449-4.451-4.449c-2.455,0-4.447,1.992-4.447,4.449
				S202.254,256.307,204.709,256.307z"/>
			<path d="M214.037,256.307c2.459,0,4.451-1.992,4.451-4.449s-1.992-4.449-4.451-4.449c-2.455,0-4.447,1.992-4.447,4.449
				S211.582,256.307,214.037,256.307z"/>
			<circle cx="223.365" cy="251.857" r="4.449"/>
			<circle cx="232.693" cy="251.857" r="4.449"/>
			<circle cx="242.021" cy="251.857" r="4.449"/>
			<circle cx="251.35" cy="251.857" r="4.449"/>
			<circle cx="260.678" cy="251.857" r="4.449"/>
			<circle cx="270.006" cy="251.857" r="4.449"/>
			<circle cx="279.334" cy="251.857" r="4.449"/>
			<circle cx="288.662" cy="251.857" r="4.449"/>
			<circle cx="297.99" cy="251.857" r="4.449"/>
			<circle cx="-14.498" cy="261.186" r="4.656"/>
			<circle cx="-5.169" cy="261.186" r="4.656"/>
			<circle cx="4.158" cy="261.186" r="4.656"/>
			<circle cx="13.486" cy="261.186" r="4.656"/>
			<circle cx="22.814" cy="261.186" r="4.656"/>
			<circle cx="32.142" cy="261.186" r="4.656"/>
			<circle cx="41.47" cy="261.186" r="4.656"/>
			<circle cx="50.798" cy="261.186" r="4.656"/>
			<circle cx="60.126" cy="261.186" r="4.656"/>
			<circle cx="69.455" cy="261.186" r="4.656"/>
			<circle cx="78.782" cy="261.186" r="4.656"/>
			<circle cx="88.11" cy="261.186" r="4.656"/>
			<circle cx="97.438" cy="261.186" r="4.656"/>
			<circle cx="106.766" cy="261.186" r="4.656"/>
			<circle cx="116.094" cy="261.186" r="4.656"/>
			<circle cx="125.421" cy="261.186" r="4.656"/>
			<circle cx="134.75" cy="261.186" r="4.656"/>
			<circle cx="144.078" cy="261.186" r="4.656"/>
			<circle cx="153.406" cy="261.186" r="4.656"/>
			<circle cx="162.733" cy="261.186" r="4.656"/>
			<circle cx="172.062" cy="261.186" r="4.656"/>
			<circle cx="181.391" cy="261.186" r="4.656"/>
			<circle cx="190.719" cy="261.186" r="4.656"/>
			<circle cx="200.047" cy="261.186" r="4.656"/>
			<circle cx="209.373" cy="261.186" r="4.656"/>
			<circle cx="218.701" cy="261.186" r="4.656"/>
			<circle cx="228.029" cy="261.186" r="4.656"/>
			<circle cx="237.357" cy="261.186" r="4.656"/>
			<circle cx="246.686" cy="261.186" r="4.656"/>
			<circle cx="256.014" cy="261.186" r="4.656"/>
			<circle cx="265.342" cy="261.186" r="4.656"/>
			<circle cx="274.67" cy="261.186" r="4.656"/>
			<circle cx="283.998" cy="261.186" r="4.656"/>
			<circle cx="293.326" cy="261.186" r="4.656"/>
			<circle cx="-9.833" cy="270.514" r="4.863"/>
			<circle cx="-0.505" cy="270.514" r="4.863"/>
			<circle cx="8.822" cy="270.514" r="4.863"/>
			<circle cx="18.15" cy="270.514" r="4.863"/>
			<circle cx="27.479" cy="270.514" r="4.863"/>
			<circle cx="36.806" cy="270.514" r="4.863"/>
			<circle cx="46.134" cy="270.514" r="4.863"/>
			<circle cx="55.462" cy="270.514" r="4.863"/>
			<circle cx="64.791" cy="270.514" r="4.863"/>
			<circle cx="74.119" cy="270.514" r="4.863"/>
			<circle cx="83.446" cy="270.514" r="4.863"/>
			<circle cx="92.774" cy="270.514" r="4.863"/>
			<circle cx="102.103" cy="270.514" r="4.863"/>
			<circle cx="111.43" cy="270.514" r="4.863"/>
			<circle cx="120.757" cy="270.514" r="4.863"/>
			<circle cx="130.085" cy="270.514" r="4.863"/>
			<circle cx="139.414" cy="270.514" r="4.863"/>
			<circle cx="148.742" cy="270.514" r="4.863"/>
			<circle cx="158.07" cy="270.514" r="4.863"/>
			<circle cx="167.398" cy="270.514" r="4.863"/>
			<circle cx="176.727" cy="270.514" r="4.863"/>
			<circle cx="186.055" cy="270.514" r="4.863"/>
			<circle cx="195.383" cy="270.514" r="4.863"/>
			<circle cx="204.709" cy="270.514" r="4.863"/>
			<circle cx="214.037" cy="270.514" r="4.863"/>
			<circle cx="223.365" cy="270.514" r="4.863"/>
			<circle cx="232.693" cy="270.514" r="4.863"/>
			<circle cx="242.021" cy="270.514" r="4.863"/>
			<circle cx="251.35" cy="270.514" r="4.863"/>
			<circle cx="260.678" cy="270.514" r="4.863"/>
			<circle cx="270.006" cy="270.514" r="4.863"/>
			<circle cx="279.334" cy="270.514" r="4.863"/>
			<circle cx="288.662" cy="270.514" r="4.863"/>
			<circle cx="297.99" cy="270.514" r="4.863"/>
			<circle cx="-14.498" cy="279.841" r="5.043"/>
			<circle cx="-5.169" cy="279.841" r="5.043"/>
			<circle cx="4.158" cy="279.841" r="5.043"/>
			<circle cx="13.486" cy="279.841" r="5.043"/>
			<circle cx="22.814" cy="279.841" r="5.043"/>
			<circle cx="32.142" cy="279.841" r="5.043"/>
			<circle cx="41.47" cy="279.841" r="5.043"/>
			<circle cx="50.798" cy="279.841" r="5.043"/>
			<circle cx="60.126" cy="279.841" r="5.043"/>
			<circle cx="69.455" cy="279.841" r="5.043"/>
			<circle cx="78.782" cy="279.841" r="5.043"/>
			<circle cx="88.11" cy="279.841" r="5.043"/>
			<circle cx="97.438" cy="279.841" r="5.043"/>
			<circle cx="106.766" cy="279.841" r="5.043"/>
			<circle cx="116.094" cy="279.841" r="5.043"/>
			<circle cx="125.421" cy="279.841" r="5.043"/>
			<circle cx="134.75" cy="279.841" r="5.043"/>
			<circle cx="144.078" cy="279.841" r="5.043"/>
			<circle cx="153.406" cy="279.841" r="5.043"/>
			<circle cx="162.733" cy="279.841" r="5.043"/>
			<circle cx="172.062" cy="279.841" r="5.043"/>
			<circle cx="181.391" cy="279.841" r="5.043"/>
			<circle cx="190.719" cy="279.841" r="5.043"/>
			<circle cx="200.047" cy="279.841" r="5.043"/>
			<circle cx="209.373" cy="279.841" r="5.043"/>
			<circle cx="218.701" cy="279.841" r="5.043"/>
			<circle cx="228.029" cy="279.841" r="5.043"/>
			<circle cx="237.357" cy="279.841" r="5.043"/>
			<circle cx="246.686" cy="279.841" r="5.043"/>
			<circle cx="256.014" cy="279.841" r="5.043"/>
			<circle cx="265.342" cy="279.841" r="5.043"/>
			<circle cx="274.67" cy="279.841" r="5.043"/>
			<circle cx="283.998" cy="279.841" r="5.043"/>
			<circle cx="293.326" cy="279.841" r="5.043"/>
			<circle cx="-9.833" cy="289.169" r="5.25"/>
			<circle cx="-0.505" cy="289.169" r="5.25"/>
			<circle cx="8.822" cy="289.169" r="5.25"/>
			<circle cx="18.15" cy="289.169" r="5.25"/>
			<circle cx="27.479" cy="289.169" r="5.25"/>
			<circle cx="36.806" cy="289.169" r="5.25"/>
			<circle cx="46.134" cy="289.169" r="5.25"/>
			<circle cx="55.462" cy="289.169" r="5.25"/>
			<circle cx="64.791" cy="289.169" r="5.25"/>
			<circle cx="74.119" cy="289.169" r="5.25"/>
			<circle cx="83.446" cy="289.169" r="5.25"/>
			<circle cx="92.774" cy="289.169" r="5.25"/>
			<circle cx="102.103" cy="289.169" r="5.25"/>
			<circle cx="111.43" cy="289.169" r="5.25"/>
			<circle cx="120.757" cy="289.169" r="5.25"/>
			<circle cx="130.085" cy="289.169" r="5.25"/>
			<circle cx="139.414" cy="289.169" r="5.25"/>
			<circle cx="148.742" cy="289.169" r="5.25"/>
			<circle cx="158.07" cy="289.169" r="5.25"/>
			<circle cx="167.398" cy="289.169" r="5.25"/>
			<circle cx="176.727" cy="289.169" r="5.25"/>
			<circle cx="186.055" cy="289.169" r="5.25"/>
			<circle cx="195.383" cy="289.169" r="5.25"/>
			<circle cx="204.709" cy="289.169" r="5.25"/>
			<circle cx="214.037" cy="289.169" r="5.25"/>
			<circle cx="223.365" cy="289.169" r="5.25"/>
			<circle cx="232.693" cy="289.169" r="5.25"/>
			<circle cx="242.021" cy="289.169" r="5.25"/>
			<circle cx="251.35" cy="289.169" r="5.25"/>
			<circle cx="260.678" cy="289.169" r="5.25"/>
			<circle cx="270.006" cy="289.169" r="5.25"/>
			<circle cx="279.334" cy="289.169" r="5.25"/>
			<circle cx="288.662" cy="289.169" r="5.25"/>
			<circle cx="297.99" cy="289.169" r="5.25"/>
		</g>
	</g>
</g>
</svg>
